<?xml version="1.0" standalone="no"?>
<!DOCTYPE svg PUBLIC "-//W3C//DTD SVG 20010904//EN"
 "http://www.w3.org/TR/2001/REC-SVG-20010904/DTD/svg10.dtd">
<svg version="1.0" xmlns="http://www.w3.org/2000/svg"
 width="183.789391pt" height="193.088152pt" viewBox="0 0 183.789391 193.088152"
 preserveAspectRatio="xMidYMid meet">
<metadata>
Created by potrace 1.12, written by Peter Selinger 2001-2015
</metadata>
<g transform="translate(-3.596709,196.550528) scale(0.100000,-0.100000)"
fill="#000000" stroke="none">
<path d="M874 1960 c-89 -11 -219 -52 -309 -98 -285 -143 -484 -425 -525 -744
-12 -95 2 -266 30 -372 29 -108 87 -227 158 -322 314 -423 908 -515 1338 -209
83 60 90 73 17 37 -123 -63 -192 -77 -368 -77 -140 0 -170 3 -235 23 -296 93
-516 327 -585 623 -24 105 -22 280 4 384 62 241 230 445 452 549 131 61 209
79 354 79 141 1 258 -24 368 -80 82 -41 79 -30 -7 32 -87 62 -233 129 -336
154 -99 24 -255 33 -356 21z"/>
<path d="M1444 1300 c-39 -58 -52 -70 -69 -65 -153 44 -330 45 -470 4 -93 -28
-95 -33 -70 -131 71 -279 297 -468 580 -485 63 -3 113 0 165 11 80 17 215 78
264 119 l30 24 -44 77 c-78 136 -194 253 -313 316 -26 14 -47 30 -47 37 0 6 7
44 15 84 9 40 14 74 11 76 -2 2 -25 -28 -52 -67z m-271 -92 c-4 -13 -8 -52 -8
-88 1 -81 35 -146 101 -193 33 -23 42 -36 39 -51 -19 -84 -25 -119 -21 -123 3
-3 24 24 48 60 42 63 44 65 94 70 28 3 69 14 91 25 38 20 104 84 116 113 8 20
98 -77 147 -160 22 -37 40 -70 40 -74 0 -13 -86 -61 -165 -90 -71 -27 -92 -31
-195 -31 -96 -1 -127 3 -189 23 -179 59 -331 212 -384 386 -30 100 -30 104 0
116 54 21 149 37 221 38 72 1 73 1 65 -21z m188 -13 c4 -3 -18 -43 -51 -89
-32 -47 -56 -87 -52 -90 3 -3 20 -6 39 -6 34 0 37 -5 24 -49 l-7 -24 -38 34
c-69 60 -93 149 -62 224 l14 34 62 -15 c35 -8 66 -17 71 -19z m50 -66 c-15
-63 -14 -67 14 -71 25 -3 24 -3 -21 -68 l-46 -65 6 45 c4 25 9 55 12 67 5 17
1 22 -20 25 l-26 3 41 58 c23 32 43 56 46 54 2 -2 -1 -24 -6 -48z m127 -19
c34 -22 62 -45 62 -52 0 -30 -52 -87 -102 -112 -46 -23 -88 -33 -88 -22 0 3
25 40 55 84 30 44 55 85 55 91 0 6 -16 11 -35 11 -33 0 -46 16 -28 33 11 11
17 9 81 -33z"/>
</g>
</svg>
